<svg width="48" height="48" viewBox="0 0 48 48" fill="none" xmlns="http://www.w3.org/2000/svg">
<path d="M30.2184 27.2933C30.7108 27.2931 31.1984 27.3899 31.6533 27.5782C32.1083 27.7665 32.5217 28.0425 32.8699 28.3906C33.2182 28.7387 33.4944 29.152 33.6829 29.6069C33.8714 30.0617 33.9684 30.5493 33.9684 31.0417V32.5717C33.9682 33.5274 33.6693 34.4592 33.1134 35.2367C30.5367 38.8417 26.3284 40.6267 20.6284 40.6267C14.925 40.6267 10.72 38.84 8.15005 35.2317C7.59726 34.4555 7.30014 33.5263 7.30005 32.5733V31.04C7.29983 30.5476 7.39662 30.06 7.5849 29.6051C7.77317 29.1501 8.04923 28.7367 8.39732 28.3885C8.74541 28.0402 9.1587 27.764 9.61357 27.5755C10.0684 27.387 10.556 27.29 11.0484 27.29H30.2167L30.2184 27.2933ZM20.6284 7.3C22.8385 7.3 24.9581 8.17798 26.5209 9.74078C28.0837 11.3036 28.9617 13.4232 28.9617 15.6333C28.9617 17.8435 28.0837 19.9631 26.5209 21.5259C24.9581 23.0887 22.8385 23.9667 20.6284 23.9667C18.4182 23.9667 16.2986 23.0887 14.7358 21.5259C13.173 19.9631 12.295 17.8435 12.295 15.6333C12.295 13.4232 13.173 11.3036 14.7358 9.74078C16.2986 8.17798 18.4182 7.3 20.6284 7.3Z" fill="white"/>
<path d="M36.0638 19V14.8511H32V13.1489H36.0638V9H37.9362V13.1489H42V14.8511H37.9362V19H36.0638Z" fill="white"/>
</svg>
