<svg width="639" height="284" viewBox="0 0 639 284" fill="none" xmlns="http://www.w3.org/2000/svg">
<g clip-path="url(#clip0_1_1786)">
<path d="M0.445312 142L141.867 0.578646L283.288 142L141.867 283.421L0.445312 142Z" fill="white"/>
<g style="mix-blend-mode:difference">
<path d="M110.317 169.183H149.035V187.132H85.4453V170.465L123.907 115.081H85.4453V97.132H149.035V113.799L110.317 169.183Z" fill="white"/>
<path d="M219.382 171.235H185.792L180.407 187.132H157.459L190.023 97.132H215.407L247.971 187.132H224.766L219.382 171.235ZM213.741 154.312L202.587 121.363L191.561 154.312H213.741Z" fill="white"/>
<path d="M310.062 187.132L279.805 147.388V187.132H257.882V97.132H279.805V136.619L309.805 97.132H335.574L300.703 141.235L336.857 187.132H310.062Z" fill="white"/>
<path d="M403.301 171.235H369.711L364.327 187.132H341.378L373.942 97.132H399.327L431.891 187.132H408.685L403.301 171.235ZM397.66 154.312L386.506 121.363L375.48 154.312H397.66Z" fill="white"/>
</g>
<path d="M479.411 99.688V139H469.835V122.816H454.939V139H445.363V99.688H454.939V115.088H469.835V99.688H479.411ZM510.796 132.056H496.124L493.772 139H483.748L497.972 99.688H509.06L523.284 139H513.148L510.796 132.056ZM508.332 124.664L503.46 110.272L498.644 124.664H508.332ZM525.989 119.288C525.989 115.405 526.829 111.952 528.509 108.928C530.189 105.867 532.522 103.496 535.509 101.816C538.533 100.099 541.949 99.24 545.757 99.24C550.423 99.24 554.418 100.472 557.741 102.936C561.063 105.4 563.285 108.76 564.405 113.016H553.877C553.093 111.373 551.973 110.123 550.517 109.264C549.098 108.405 547.474 107.976 545.645 107.976C542.695 107.976 540.306 109.003 538.477 111.056C536.647 113.109 535.733 115.853 535.733 119.288C535.733 122.723 536.647 125.467 538.477 127.52C540.306 129.573 542.695 130.6 545.645 130.6C547.474 130.6 549.098 130.171 550.517 129.312C551.973 128.453 553.093 127.203 553.877 125.56H564.405C563.285 129.816 561.063 133.176 557.741 135.64C554.418 138.067 550.423 139.28 545.757 139.28C541.949 139.28 538.533 138.44 535.509 136.76C532.522 135.043 530.189 132.672 528.509 129.648C526.829 126.624 525.989 123.171 525.989 119.288ZM579.845 107.36V115.312H592.669V122.704H579.845V131.328H594.349V139H570.269V99.688H594.349V107.36H579.845ZM443.739 164.288C443.739 160.405 444.579 156.952 446.259 153.928C447.939 150.867 450.272 148.496 453.259 146.816C456.283 145.099 459.699 144.24 463.507 144.24C468.173 144.24 472.168 145.472 475.491 147.936C478.813 150.4 481.035 153.76 482.155 158.016H471.627C470.843 156.373 469.723 155.123 468.267 154.264C466.848 153.405 465.224 152.976 463.395 152.976C460.445 152.976 458.056 154.003 456.227 156.056C454.397 158.109 453.483 160.853 453.483 164.288C453.483 167.723 454.397 170.467 456.227 172.52C458.056 174.573 460.445 175.6 463.395 175.6C465.224 175.6 466.848 175.171 468.267 174.312C469.723 173.453 470.843 172.203 471.627 170.56H482.155C481.035 174.816 478.813 178.176 475.491 180.64C472.168 183.067 468.173 184.28 463.507 184.28C459.699 184.28 456.283 183.44 453.259 181.76C450.272 180.043 447.939 177.672 446.259 174.648C444.579 171.624 443.739 168.171 443.739 164.288ZM506.611 184.392C502.915 184.392 499.518 183.533 496.419 181.816C493.358 180.099 490.912 177.709 489.083 174.648C487.291 171.549 486.395 168.077 486.395 164.232C486.395 160.387 487.291 156.933 489.083 153.872C490.912 150.811 493.358 148.421 496.419 146.704C499.518 144.987 502.915 144.128 506.611 144.128C510.307 144.128 513.686 144.987 516.747 146.704C519.846 148.421 522.272 150.811 524.027 153.872C525.819 156.933 526.715 160.387 526.715 164.232C526.715 168.077 525.819 171.549 524.027 174.648C522.235 177.709 519.808 180.099 516.747 181.816C513.686 183.533 510.307 184.392 506.611 184.392ZM506.611 175.656C509.747 175.656 512.248 174.611 514.115 172.52C516.019 170.429 516.971 167.667 516.971 164.232C516.971 160.76 516.019 157.997 514.115 155.944C512.248 153.853 509.747 152.808 506.611 152.808C503.438 152.808 500.899 153.835 498.995 155.888C497.128 157.941 496.195 160.723 496.195 164.232C496.195 167.704 497.128 170.485 498.995 172.576C500.899 174.629 503.438 175.656 506.611 175.656ZM546.266 184.392C543.392 184.392 540.816 183.925 538.538 182.992C536.261 182.059 534.432 180.677 533.05 178.848C531.706 177.019 530.997 174.816 530.922 172.24H541.114C541.264 173.696 541.768 174.816 542.626 175.6C543.485 176.347 544.605 176.72 545.986 176.72C547.405 176.72 548.525 176.403 549.346 175.768C550.168 175.096 550.578 174.181 550.578 173.024C550.578 172.053 550.242 171.251 549.57 170.616C548.936 169.981 548.133 169.459 547.162 169.048C546.229 168.637 544.885 168.171 543.13 167.648C540.592 166.864 538.52 166.08 536.914 165.296C535.309 164.512 533.928 163.355 532.77 161.824C531.613 160.293 531.034 158.296 531.034 155.832C531.034 152.173 532.36 149.317 535.01 147.264C537.661 145.173 541.114 144.128 545.37 144.128C549.701 144.128 553.192 145.173 555.842 147.264C558.493 149.317 559.912 152.192 560.098 155.888H549.738C549.664 154.619 549.197 153.629 548.338 152.92C547.48 152.173 546.378 151.8 545.034 151.8C543.877 151.8 542.944 152.117 542.234 152.752C541.525 153.349 541.17 154.227 541.17 155.384C541.17 156.653 541.768 157.643 542.962 158.352C544.157 159.061 546.024 159.827 548.562 160.648C551.101 161.507 553.154 162.328 554.722 163.112C556.328 163.896 557.709 165.035 558.866 166.528C560.024 168.021 560.602 169.944 560.602 172.296C560.602 174.536 560.024 176.571 558.866 178.4C557.746 180.229 556.104 181.685 553.938 182.768C551.773 183.851 549.216 184.392 546.266 184.392ZM590.967 177.056H576.295L573.943 184H563.919L578.143 144.688H589.231L603.455 184H593.319L590.967 177.056ZM588.503 169.664L583.631 155.272L578.815 169.664H588.503ZM622.009 184.392C619.134 184.392 616.558 183.925 614.281 182.992C612.003 182.059 610.174 180.677 608.793 178.848C607.449 177.019 606.739 174.816 606.665 172.24H616.857C617.006 173.696 617.51 174.816 618.369 175.6C619.227 176.347 620.347 176.72 621.729 176.72C623.147 176.72 624.267 176.403 625.089 175.768C625.91 175.096 626.321 174.181 626.321 173.024C626.321 172.053 625.985 171.251 625.313 170.616C624.678 169.981 623.875 169.459 622.905 169.048C621.971 168.637 620.627 168.171 618.873 167.648C616.334 166.864 614.262 166.08 612.657 165.296C611.051 164.512 609.67 163.355 608.513 161.824C607.355 160.293 606.777 158.296 606.777 155.832C606.777 152.173 608.102 149.317 610.753 147.264C613.403 145.173 616.857 144.128 621.113 144.128C625.443 144.128 628.934 145.173 631.585 147.264C634.235 149.317 635.654 152.192 635.841 155.888H625.481C625.406 154.619 624.939 153.629 624.081 152.92C623.222 152.173 622.121 151.8 620.776 151.8C619.619 151.8 618.686 152.117 617.977 152.752C617.267 153.349 616.913 154.227 616.913 155.384C616.913 156.653 617.51 157.643 618.704 158.352C619.899 159.061 621.766 159.827 624.305 160.648C626.843 161.507 628.897 162.328 630.465 163.112C632.07 163.896 633.451 165.035 634.609 166.528C635.766 168.021 636.345 169.944 636.345 172.296C636.345 174.536 635.766 176.571 634.609 178.4C633.489 180.229 631.846 181.685 629.681 182.768C627.515 183.851 624.958 184.392 622.009 184.392Z" fill="white"/>
</g>
<defs>
<clipPath id="clip0_1_1786">
<rect width="638.445" height="282.843" fill="white" transform="translate(0.445312 0.578644)"/>
</clipPath>
</defs>
</svg>
